<?xml version="1.0" encoding="UTF-8" standalone="no"?>
<svg
   version="1.0"
   width="476.4136pt"
   height="333.01764pt"
   viewBox="0 0 476.4136 333.01764"
   preserveAspectRatio="xMidYMid"
   id="svg32"
   sodipodi:docname="ws-logo.svg"
   inkscape:version="1.2.2 (732a01da63, 2022-12-09)"
   xmlns:inkscape="http://www.inkscape.org/namespaces/inkscape"
   xmlns:sodipodi="http://sodipodi.sourceforge.net/DTD/sodipodi-0.dtd"
   xmlns="http://www.w3.org/2000/svg"
   xmlns:svg="http://www.w3.org/2000/svg">
  <defs
     id="defs36" />
  <sodipodi:namedview
     id="namedview34"
     pagecolor="#ffffff"
     bordercolor="#111111"
     borderopacity="1"
     inkscape:showpageshadow="0"
     inkscape:pageopacity="0"
     inkscape:pagecheckerboard="1"
     inkscape:deskcolor="#d1d1d1"
     inkscape:document-units="pt"
     showgrid="false"
     inkscape:zoom="1.7872124"
     inkscape:cx="405.65968"
     inkscape:cy="265.77703"
     inkscape:window-width="2560"
     inkscape:window-height="1377"
     inkscape:window-x="-8"
     inkscape:window-y="-8"
     inkscape:window-maximized="1"
     inkscape:current-layer="svg32">
    <inkscape:grid
       type="xygrid"
       id="grid198"
       originx="-75.293201"
       originy="-141.94391" />
  </sodipodi:namedview>
  <g
     transform="matrix(0.1,0,0,-0.1,-75.293201,458.05609)"
     fill="#800000"
     stroke="none"
     id="g30">
    <path
       d="m 976,4558 c -30,-28 -215,-341 -222,-378 -4,-18 3,-36 25,-64 436.1368,-768.7391 908.3267,-1594.9123 1271,-2199 25,-27 77,-25 104,4 34,35 216,355 216,379 -419.0155,746.1159 -828.3371,1452.671 -1265,2210 -37,73 -82,90 -129,48 z"
       id="path20"
       sodipodi:nodetypes="cccccccc" />
    <path
       d="m 5207,4569 c -9,-6 -29,-32 -42,-60 -410.0494,-713.9284 -849.0937,-1462.174 -1265,-2209 0,-24 182,-344 216,-379 27,-29 79,-31 104,-4 440.7817,748.2669 846.4763,1462.3805 1271,2199 22,28 29,46 25,64 -7,37 -192,350 -222,378 -27,24 -58,28 -87,11 z"
       id="path22"
       sodipodi:nodetypes="ccccccccc" />
    <path
       d="m 2462,3720 c -31,-13 -47,-52 -36,-89 5,-16 155,-282 334,-591 223,-386 332,-566 348,-573 56,-26 56,-26 405,578 181,314 331,584 334,600 3,21 -1,38 -15,55 l -20,25 -664,2 c -385,1 -672,-2 -686,-7 z"
       id="path24" />
    <path
       d="m 2738,2618 c -26,-29 -547,-935 -555,-966 -4,-16 1,-33 15,-50 72.2876,-120.8169 130.8628,-219.3383 205,-329 25,-28 67,-30 95,-5 195.0894,326.8723 356.6301,623.9194 530,916 17,22 22,37 18,58 -7,34 -200,368 -223,386 -26,19 -61,14 -85,-10 z"
       id="path26"
       sodipodi:nodetypes="ccccccccc" />
    <path
       d="m 3447,2628 c -23,-18 -216,-352 -223,-386 -4,-21 6.7081,-35.2894 19.4837,-59.4837 C 3420.9269,1857.4106 3578.7169,1598.749 3772,1267 c 28,-24 70,-22 95,6 72.6378,116.4841 128.4949,205.4439 205,329 14,17 19,34 15,50 -8,31 -529,937 -555,966 -24,24 -59,29 -85,10 z"
       id="path28"
       sodipodi:nodetypes="ccccccccc" />
  </g>
</svg>
