<?xml version="1.0" encoding="UTF-8" standalone="no"?>
<svg
   version="1.0"
   width="442.92892pt"
   height="332.7681pt"
   viewBox="0 0 442.92892 332.7681"
   preserveAspectRatio="xMidYMid"
   id="svg32"
   sodipodi:docname="logo1.svg"
   inkscape:version="1.3.2 (1:1.3.2+202311252150+091e20ef0f)"
   xmlns:inkscape="http://www.inkscape.org/namespaces/inkscape"
   xmlns:sodipodi="http://sodipodi.sourceforge.net/DTD/sodipodi-0.dtd"
   xmlns="http://www.w3.org/2000/svg"
   xmlns:svg="http://www.w3.org/2000/svg">
  <defs
     id="defs36" />
  <sodipodi:namedview
     id="namedview34"
     pagecolor="#ffffff"
     bordercolor="#111111"
     borderopacity="1"
     inkscape:showpageshadow="0"
     inkscape:pageopacity="0"
     inkscape:pagecheckerboard="1"
     inkscape:deskcolor="#d1d1d1"
     inkscape:document-units="pt"
     showgrid="true"
     inkscape:zoom="2.5275"
     inkscape:cx="333.9268"
     inkscape:cy="232.2453"
     inkscape:window-width="2560"
     inkscape:window-height="1515"
     inkscape:window-x="0"
     inkscape:window-y="0"
     inkscape:window-maximized="1"
     inkscape:current-layer="svg32">
    <inkscape:grid
       type="xygrid"
       id="grid198"
       originx="-92.042289"
       originy="-142.19343"
       spacingy="1"
       spacingx="1"
       units="pt"
       visible="true" />
  </sodipodi:namedview>
  <path 
     d="m 401.75481,4.8107982 c -4.75875,-6.44898 -10.33499,-5.77442732 -13.98945,0.68813 C 371.87166,33.605366 311.07384,139.45195 280.66262,189.05657 c -2.26416,3.69314 -3.91292,8.42004 0.82912,15.8076 10.55199,16.4388 36.36597,59.0924 38.06597,60.8424 2.7,2.9 7.9,3.1 10.4,0.4 44.07817,-74.82669 99.74261,-171.184532 110.42218,-190.215262 3.77809,-6.73246 3.1176,-12.05606 -0.4124,-17.2687 -14.22013,-20.99842 -21.38727,-31.01023 -38.21268,-53.8118098 z"
     id="path22"
     sodipodi:nodetypes="ssssccsss"
     style="fill:#ffa0a0;stroke:none;stroke-width:0.1" />
  <path
     d="m 154.61371,85.133578 c -5.60813,0.01555 -5.99025,6.23253 -4.056,9.57299 24.43705,42.202822 46.70519,80.747682 65.77218,112.469022 2.4102,4.00981 7.58806,4.1408 9.93649,0.20976 19.50285,-32.64586 65.70389,-112.676822 66.39133,-114.078782 1.57524,-3.21254 1.2143,-7.95129 -3.5,-8 -0.0749,-0.001 -97.53685,-0.27558 -134.544,-0.17299 z"
     id="path24"
     sodipodi:nodetypes="sssssss"
     style="fill:#ffa0a0;stroke:none;stroke-width:0.1" />
  <path
     d="m 181.75771,196.00657 c -2.6,2.9 -54.7,93.5 -55.5,96.6 -0.4,1.6 0.1,3.3 1.5,5 7.22876,12.08169 13.08628,21.93383 20.5,32.9 2.5,2.8 6.7,3 9.5,0.5 19.50894,-32.68723 35.66301,-62.39194 53,-91.6 1.7,-2.2 2.2,-3.7 1.8,-5.8 -0.7,-3.4 -20,-36.8 -22.3,-38.6 -2.6,-1.9 -6.1,-1.4 -8.5,1 z"
     id="path26"
     sodipodi:nodetypes="ccccccccc"
     style="fill:#ffa0a0;stroke:none;stroke-width:0.1" />
  <path
     d="m 252.65771,195.00657 c -2.3,1.8 -21.6,35.2 -22.3,38.6 -0.4,2.1 0.67081,3.52894 1.94837,5.94837 17.74432,32.51057 33.52332,58.37673 52.85163,91.55163 2.8,2.4 7,2.2 9.5,-0.6 7.26378,-11.64841 12.84949,-20.54439 20.5,-32.9 1.4,-1.7 1.9,-3.4 1.5,-5 -0.8,-3.1 -52.9,-93.7 -55.5,-96.6 -2.4,-2.4 -5.9,-2.9 -8.5,-1 z"
     id="path28"
     sodipodi:nodetypes="ccccccccc"
     style="fill:#ffa0a0;stroke:none;stroke-width:0.1" />
  <path
     d="m 41.174104,4.5112198 c 4.75875,-6.44898 10.33499,-5.774427 13.98945,0.68813 C 71.057254,33.305788 131.85508,139.15237 162.2663,188.75699 c 2.26416,3.69314 3.91292,8.42004 -0.82912,15.8076 -10.55199,16.4388 -36.36597,59.0924 -38.06597,60.8424 -2.7,2.9 -7.9,3.1 -10.4,0.4 C 68.893034,190.9803 13.228594,94.622463 2.5490236,75.59173 -1.2290664,68.85927 -0.56857641,63.53567 2.9614236,58.32303 17.181554,37.32461 24.348694,27.3128 41.174104,4.5112198 Z"
     id="path22-6"
     sodipodi:nodetypes="ssssccsss"
     style="fill:#ffa0a0;stroke:none;stroke-width:0.1" />
</svg>
