<svg fill="#000000" height="800px" width="800px"
     xmlns="http://www.w3.org/2000/svg"
     viewBox="0 0 512 512">
    <g>
        <g>
            <path d="M299.476,70.848c-10.399-5.568-22.956-4.96-32.77,1.583l-137.195,91.466H77.498c-13.339,0-24.299,10.298-25.394,23.358
			H44.76c-24.681,0-44.76,20.079-44.76,44.76v47.972c0,24.681,20.079,44.76,44.76,44.76h7.343
			c1.096,13.06,12.057,23.358,25.394,23.358h52.012l137.195,91.466c5.351,3.566,11.516,5.37,17.704,5.369
			c5.161,0,10.338-1.255,15.066-3.786c10.4-5.566,16.859-16.35,16.859-28.145V98.993C316.335,87.198,309.875,76.413,299.476,70.848z
			 M51.994,299.418H44.76c-10.714-0.001-19.43-8.717-19.43-19.432v-47.972c0-10.714,8.716-19.43,19.43-19.43h7.234V299.418z
			 M120.68,322.775H77.498c-0.095,0-0.174-0.077-0.174-0.174V189.4c0-0.096,0.078-0.174,0.174-0.174h43.182V322.775z
			 M291.006,413.01c0,3.564-2.434,5.252-3.482,5.812c-1.047,0.56-3.802,1.65-6.768-0.327l-134.747-89.833V183.34l134.747-89.832
			c2.967-1.977,5.722-0.887,6.768-0.327c1.047,0.56,3.482,2.248,3.482,5.812V413.01z"/>
        </g>
    </g>
</svg>