<svg width="800px" height="800px" viewBox="0 0 24 24">
  <path
     d="M 8.9420377,4.8978389 C 10.291947,2.476181 10.966969,1.2653521 11.976104,1.2653521 c 1.009135,0 1.684023,1.2108289 3.033933,3.6324868 l 0.349301,0.6265163 c 0.383538,0.6881569 0.575373,1.0322354 0.87445,1.2592674 0.299077,0.2270188 0.671558,0.3112933 1.41652,0.4798421 l 0.678085,0.1534419 c 2.621487,0.5931183 3.93223,0.8896775 4.243963,1.8924847 0.311866,1.0027407 -0.581635,2.0477117 -2.36877,4.1373867 l -0.462404,0.540737 c -0.507831,0.593758 -0.761747,0.890703 -0.875916,1.258122 -0.114302,0.367285 -0.07593,0.763479 9.33e-4,1.555733 l 0.06981,0.721382 c 0.270301,2.788277 0.405386,4.182415 -0.411115,4.802151 -0.816367,0.619735 -2.043582,0.05462 -4.498011,-1.075478 L 13.39196,20.957142 c -0.697535,-0.321192 -1.04617,-0.481721 -1.415853,-0.481721 -0.369683,0 -0.718451,0.160529 -1.415853,0.481721 L 9.925195,21.249425 C 7.4707653,22.379523 6.2435637,22.944638 5.4271701,22.324903 4.6107631,21.705167 4.7458607,20.311029 5.0160425,17.522752 l 0.0699,-0.721382 c 0.076788,-0.792254 0.115168,-1.188448 9.459e-4,-1.555733 C 4.972653,14.878218 4.7187373,14.581273 4.2108925,13.987515 L 3.7485554,13.446778 C 1.9614471,11.357103 1.0678929,10.312132 1.379719,9.3093913 1.6915584,8.3065841 3.0022617,8.0100249 5.6236817,7.4169066 L 6.3018738,7.2634647 C 7.0467287,7.0949159 7.4192095,7.0106414 7.7182865,6.7836226 8.0173635,6.5565906 8.2091991,6.2125121 8.592737,5.5243552 Z" />
</svg>
