<svg width="800px" height="800px" viewBox="0 0 24 24">
  <path
     fill-rule="evenodd"
     clip-rule="evenodd"
     d="M5.48039 1.90311C5.48038 1.90308 5.48039 1.90314 5.48039 1.90311C5.43387 1.66838 5.2275 1.49919 4.98818 1.5C4.7488 1.50081 4.54359 1.67116 4.49873 1.90628L4.49839 1.908L4.49648 1.91758C4.49467 1.92655 4.49179 1.94056 4.48782 1.95905C4.47987 1.99608 4.46761 2.05092 4.45092 2.11918C4.41742 2.25622 4.3667 2.44478 4.29809 2.65065C4.1534 3.08484 3.95627 3.51076 3.73001 3.73856C3.50374 3.96635 3.07917 4.16636 2.64596 4.31398C2.44056 4.38398 2.25235 4.43597 2.11554 4.4704C2.04739 4.48755 1.99264 4.50018 1.95566 4.50838C1.93719 4.51247 1.9232 4.51545 1.91425 4.51732L1.90468 4.51929L1.90311 4.51961C1.6683 4.56606 1.49919 4.77245 1.5 5.01182C1.50081 5.2512 1.67116 5.45641 1.90628 5.50127L1.908 5.50161L1.91758 5.50352C1.92655 5.50533 1.94056 5.50821 1.95905 5.51218C1.99608 5.52013 2.05092 5.53239 2.11918 5.54908C2.25622 5.58258 2.44478 5.6333 2.65065 5.70191C3.08484 5.8466 3.51076 6.04373 3.73856 6.27C3.96635 6.49626 4.16636 6.92083 4.31398 7.35404C4.38398 7.55944 4.43597 7.74765 4.4704 7.88446C4.48755 7.95261 4.50018 8.00736 4.50838 8.04434C4.51247 8.06281 4.51545 8.0768 4.51732 8.08575L4.51929 8.09532L4.51961 8.09689C4.56606 8.3317 4.77245 8.50081 5.01182 8.5C5.2512 8.49919 5.45641 8.32884 5.50127 8.09372L5.50161 8.092L5.50352 8.08242C5.50533 8.07345 5.50821 8.05944 5.51218 8.04095C5.52013 8.00392 5.53239 7.94908 5.54908 7.88082C5.58258 7.74378 5.6333 7.55522 5.70191 7.34935C5.8466 6.91516 6.04373 6.48924 6.27 6.26144C6.49626 6.03365 6.92083 5.83364 7.35404 5.68602C7.55944 5.61602 7.74765 5.56403 7.88446 5.5296C7.95261 5.51245 8.00736 5.49982 8.04434 5.49162C8.06281 5.48753 8.0768 5.48455 8.08575 5.48268L8.09532 5.48071L8.09689 5.48039C8.09684 5.4804 8.09694 5.48038 8.09689 5.48039C8.33159 5.43385 8.50081 5.22748 8.5 4.98818C8.49919 4.7488 8.32884 4.54359 8.09372 4.49873L8.092 4.49839L8.08242 4.49648C8.07345 4.49467 8.05944 4.49179 8.04095 4.48782C8.00392 4.47987 7.94908 4.46761 7.88082 4.45092C7.74378 4.41742 7.55522 4.3667 7.34935 4.29809C6.91516 4.1534 6.48924 3.95627 6.26144 3.73001C6.03365 3.50374 5.83364 3.07917 5.68602 2.64596C5.61602 2.44056 5.56403 2.25235 5.5296 2.11554C5.51245 2.04739 5.49982 1.99264 5.49162 1.95566C5.48753 1.93719 5.48455 1.9232 5.48268 1.91425L5.48071 1.90468L5.48039 1.90311ZM6.39614 4.99528C6.09334 4.85303 5.78918 4.67039 5.55673 4.4395C5.32428 4.20861 5.13958 3.90569 4.99528 3.60386C4.85303 3.90666 4.67039 4.21082 4.4395 4.44327C4.20861 4.67572 3.90569 4.86042 3.60386 5.00472C3.90666 5.14697 4.21082 5.32961 4.44327 5.5605C4.67572 5.79139 4.86042 6.09431 5.00472 6.39614C5.14697 6.09334 5.32961 5.78918 5.5605 5.55673C5.79139 5.32428 6.09431 5.13958 6.39614 4.99528Z"
     />
  <path
     fill-rule="evenodd"
     clip-rule="evenodd"
     d="m 19,3.25 c 0.4142,0 0.75,0.33579 0.75,0.75 V 4.25 H 20 c 0.4142,0 0.75,0.33579 0.75,0.75 0,0.41421 -0.3358,0.75 -0.75,0.75 H 19.75 V 6 C 19.75,6.41421 19.4142,6.75 19,6.75 18.5858,6.75 18.25,6.41421 18.25,6 V 5.75 H 18 C 17.5858,5.75 17.25,5.41421 17.25,5 17.25,4.58579 17.5858,4.25 18,4.25 h 0.25 V 4 c 0,-0.41421 0.3358,-0.75 0.75,-0.75 z"
      />
  <path
     fill-rule="evenodd"
     clip-rule="evenodd"
     d="m 9.949143,7.2233728 c 1.167795,-2.0949553 1.751751,-3.1424329 2.624745,-3.1424329 0.872994,0 1.456833,1.0474776 2.624629,3.1424329 l 0.302177,0.5419939 c 0.331795,0.5953186 0.49775,0.8929779 0.756479,1.0893813 0.258729,0.196392 0.580959,0.2692972 1.225419,0.4151073 l 0.586606,0.1327413 c 2.267826,0.5131014 3.401738,0.7696524 3.671416,1.6371724 0.269792,0.867462 -0.503168,1.771457 -2.049203,3.579217 l -0.400021,0.467787 c -0.439321,0.513655 -0.658981,0.77054 -0.757748,1.088391 -0.09888,0.317735 -0.06569,0.660479 8.07e-4,1.345851 l 0.06039,0.624061 c 0.233835,2.412115 0.350696,3.618171 -0.355652,4.1543 -0.706232,0.536127 -1.767885,0.04725 -3.89119,-0.930387 L 13.79873,21.116137 c -0.603431,-0.27786 -0.905032,-0.416732 -1.224842,-0.416732 -0.319809,0 -0.621526,0.138872 -1.224842,0.416732 l -0.549384,0.252852 c -2.1233061,0.977638 -3.1849476,1.466514 -3.8912026,0.930387 -0.7062667,-0.536129 -0.5893949,-1.742185 -0.355663,-4.1543 l 0.06047,-0.624061 c 0.066429,-0.685372 0.099631,-1.028116 8.183e-4,-1.345851 C 6.5152625,15.857313 6.2956023,15.600428 5.8562701,15.086773 L 5.4563063,14.618986 C 3.9102943,12.811226 3.1372883,11.907231 3.4070464,11.039769 3.6768159,10.172249 4.810694,9.915698 7.0784619,9.4025966 L 7.66516,9.2698553 C 8.3095275,9.1240452 8.6317575,9.05114 8.8904864,8.854748 9.1492153,8.6583446 9.315171,8.3606853 9.646966,7.7653667 Z"
     />
</svg>
