<svg version="1.0" xmlns="http://www.w3.org/2000/svg"
     width="225pt" height="225pt" viewBox="0 0 225 225">

    <g transform="translate(0,225) scale(0.1,-0.1)"
       fill="#000000" stroke="none">
        <path d="M815 1951 c-42 -19 -89 -66 -100 -101 -6 -19 -15 -20 -193 -20 -103
    0 -203 -5 -223 -10 -61 -17 -102 -52 -131 -109 l-28 -55 0 -531 0 -531 27 -55
    c30 -57 71 -92 132 -109 20 -5 156 -10 305 -10 l268 0 -6 25 c-4 14 -9 45 -13
    70 l-6 45 -259 0 -259 0 -24 25 -25 24 0 516 0 516 25 24 24 25 234 0 234 0
    23 53 c43 94 20 87 305 87 285 0 262 7 305 -87 l23 -53 234 0 234 0 24 -25
    c24 -24 25 -28 25 -182 l0 -158 70 -47 70 -46 0 212 c0 212 0 213 -27 267 -21
    40 -40 61 -77 84 l-49 30 -206 4 -206 3 -30 47 c-19 30 -46 54 -75 69 -43 21
    -54 22 -315 22 -240 0 -274 -2 -310 -19z"/>
        <path d="M420 1480 l0 -70 70 0 70 0 0 70 0 70 -70 0 -70 0 0 -70z"/>
        <path d="M1040 1537 c-84 -19 -149 -55 -211 -116 -159 -159 -166 -400 -17
    -575 22 -26 43 -45 45 -42 3 3 15 35 28 71 l22 65 -31 61 c-25 51 -30 73 -29
    128 0 79 19 127 74 186 87 94 214 117 327 58 l60 -30 68 23 c38 13 71 24 73
    24 11 0 -49 55 -94 84 -93 62 -213 86 -315 63z"/>
        <path d="M1455 1245 c-168 -47 -316 -167 -399 -325 -54 -103 -69 -175 -64
    -315 4 -104 9 -130 35 -197 60 -151 166 -268 308 -339 185 -92 375 -91 565 2
    267 131 409 455 324 739 -63 212 -236 379 -450 434 -76 20 -248 20 -319 1z
    m285 -136 c25 -6 75 -26 111 -45 194 -102 299 -337 244 -549 -37 -140 -131
    -257 -258 -320 -329 -163 -709 71 -709 435 0 326 289 552 612 479z"/>
        <path d="M1550 840 l0 -140 -140 0 -140 0 0 -70 0 -70 140 0 140 0 0 -140 0
    -140 70 0 70 0 0 140 0 140 140 0 140 0 0 70 0 70 -140 0 -140 0 0 140 0 140
    -70 0 -70 0 0 -140z"/>
    </g>
</svg>
