<svg version="1.0" xmlns="http://www.w3.org/2000/svg"
     width="225pt" height="225pt" viewBox="0 0 225 225"
     >

    <g transform="translate(0,225) scale(0.1,-0.1)"
       stroke="none">
        <path d="M164 1821 c-54 -13 -103 -51 -132 -99 l-27 -47 0 -480 0 -480 28 -47
    c18 -31 44 -57 75 -75 l47 -28 368 -3 367 -3 0 70 0 71 -349 0 c-337 0 -349 1
    -375 21 l-26 20 0 454 0 454 26 20 c27 21 32 21 889 21 857 0 862 0 889 -21
    l26 -20 0 -202 0 -202 55 -42 c91 -70 87 -81 83 215 l-3 257 -28 47 c-18 31
    -44 57 -75 75 l-47 28 -880 2 c-484 0 -894 -2 -911 -6z"/>
        <path d="M287 1543 c-4 -3 -7 -35 -7 -70 l0 -63 70 0 70 0 0 70 0 70 -63 0
    c-35 0 -67 -3 -70 -7z"/>
        <path d="M567 1543 c-4 -3 -7 -35 -7 -70 l0 -63 70 0 70 0 0 70 0 70 -63 0
    c-35 0 -67 -3 -70 -7z"/>
        <path d="M850 1480 l0 -70 65 0 65 0 0 70 0 70 -65 0 -65 0 0 -70z"/>
        <path d="M1130 1480 l0 -70 65 0 65 0 0 70 0 70 -65 0 -65 0 0 -70z"/>
        <path d="M1410 1480 l0 -70 70 0 71 0 -3 68 -3 67 -67 3 -68 3 0 -71z"/>
        <path d="M1690 1480 l0 -70 70 0 71 0 -3 68 -3 67 -67 3 -68 3 0 -71z"/>
        <path d="M280 1195 l0 -65 70 0 70 0 0 65 0 65 -70 0 -70 0 0 -65z"/>
        <path d="M560 1195 l0 -65 70 0 70 0 0 65 0 65 -70 0 -70 0 0 -65z"/>
        <path d="M850 1195 l0 -65 65 0 65 0 0 65 0 65 -65 0 -65 0 0 -65z"/>
        <path d="M1130 1219 l0 -41 53 38 c28 21 54 39 56 41 2 2 -21 3 -52 3 l-57 0
    0 -41z"/>
        <path d="M1470 1244 c-85 -22 -209 -88 -272 -144 -209 -187 -267 -497 -141
    -753 73 -145 241 -280 403 -322 82 -21 234 -21 315 0 133 35 262 120 342 228
    87 118 124 229 125 377 0 182 -55 314 -187 446 -91 91 -179 141 -295 168 -81
    19 -217 19 -290 0z m269 -135 c74 -17 162 -68 227 -133 235 -236 169 -634
    -131 -782 -327 -162 -708 73 -707 436 1 326 288 552 611 479z"/>
        <path d="M1550 840 l0 -140 -140 0 -140 0 0 -70 0 -70 140 0 140 0 0 -140 0
    -140 70 0 70 0 0 140 0 140 140 0 140 0 0 70 0 70 -140 0 -140 0 0 140 0 140
    -70 0 -70 0 0 -140z"/>
        <path d="M282 913 l3 -68 138 -3 137 -3 0 71 0 70 -140 0 -141 0 3 -67z"/>
        <path d="M700 915 l0 -65 108 0 108 0 25 57 c13 32 25 61 27 65 2 4 -57 8
    -132 8 l-136 0 0 -65z"/>
    </g>
</svg>
